<svg width="24" height="24" viewBox="0 0 24 24" fill="none" xmlns="http://www.w3.org/2000/svg">
<path fill-rule="evenodd" clip-rule="evenodd" d="M20.0355 13.5444C19.2783 17.5518 15.7586 20.5827 11.5311 20.5827C7.30355 20.5827 3.78392 17.5518 3.02665 13.5444H0.327361C1.11194 19.0294 5.82912 23.2459 11.5311 23.2459C17.2331 23.2459 21.9503 19.0294 22.7348 13.5444H20.0355ZM2.87639 12.0226C2.87605 11.991 2.87588 11.9592 2.87588 11.9275C2.87588 7.14735 6.75096 3.27227 11.5311 3.27227C16.3112 3.27227 20.1863 7.14735 20.1863 11.9275C20.1863 11.9592 20.1861 11.991 20.1858 12.0226H22.8491C22.8493 11.9909 22.8495 11.9592 22.8495 11.9275C22.8495 5.67653 17.7821 0.609131 11.5311 0.609131C5.28014 0.609131 0.212738 5.67653 0.212738 11.9275C0.212738 11.9592 0.212869 11.9909 0.213129 12.0226H2.87639Z" fill="#456658"/>
<path d="M9.81949 12.403C9.78264 12.1681 9.43904 11.9275 9.43904 11.9275L12.8631 11.4519C12.8631 11.4519 13.6872 11.9043 13.7191 12.403C13.7364 12.6729 13.5289 13.0688 13.5289 13.0688H12.7852C12.4293 13.3354 11.8425 13.83 11.8168 14.2102C11.7813 14.7369 12.8631 15.0662 12.8631 15.0662H9.05859C9.05859 15.0662 9.83939 14.6696 9.62927 14.2102C9.46288 13.8464 9.05859 12.8786 9.05859 12.8786L9.74694 12.6974C9.80021 12.6015 9.83446 12.4984 9.81949 12.403Z" fill="#ECB492"/>
<rect x="0.0227661" y="12.4031" width="5.13606" height="0.760898" rx="0.380449" fill="#ECB492"/>
<rect x="15.4306" y="12.4031" width="7.60898" height="0.760898" rx="0.380449" fill="#ECB492"/>
<rect x="4.39783" y="11.2617" width="14.4571" height="0.760898" rx="0.380449" fill="#ECB492"/>
<path d="M11.3409 4.98438C7.82146 4.98438 4.96838 7.79487 4.96838 11.2618H11.3409H17.7134C17.7134 7.79487 14.8604 4.98438 11.3409 4.98438Z" fill="#ECB492"/>
<rect x="5.91962" y="12.4031" width="8.94055" height="0.760898" rx="0.380449" fill="#ECB492"/>
<rect x="7.44141" y="14.876" width="10.2721" height="0.760898" rx="0.380449" fill="#ECB492"/>
</svg>
